{
	"asset":{
		"generator":"Khronos glTF Blender I/O v4.2.83",
		"version":"2.0"
	},
	"scene":0,
	"scenes":[
		{
			"name":"Scene",
			"nodes":[
				0,
				1,
				2,
				3,
				4,
				5,
				6,
				7,
				8,
				9,
				10,
				11,
				12
			]
		}
	],
	"nodes":[
		{
			"mesh":0,
			"name":"000_\u5e8a\u51e0.002",
			"translation":[
				-64.1923599243164,
				4.145533084869385,
				-3.6138176918029785
			]
		},
		{
			"mesh":1,
			"name":"001_\u6696\u7c3e.002",
			"translation":[
				-64.1923599243164,
				4.145533084869385,
				-3.6138176918029785
			]
		},
		{
			"mesh":2,
			"name":"002_\u80cc\u9762\u58c1.002",
			"translation":[
				-64.1923599243164,
				4.145533084869385,
				-3.6138176918029785
			]
		},
		{
			"mesh":3,
			"name":"003_\u753a\u5bb6.002",
			"translation":[
				-64.1923599243164,
				4.145533084869385,
				-3.6138176918029785
			]
		},
		{
			"mesh":4,
			"name":"004_\u5965\u753a\u5bb6.002",
			"translation":[
				-64.1923599243164,
				4.145533084869385,
				-3.6138176918029785
			]
		},
		{
			"mesh":5,
			"name":"005_\u8fbb\u884c\u706f.002",
			"translation":[
				-64.1923599243164,
				4.145533084869385,
				-3.6138176918029785
			]
		},
		{
			"mesh":6,
			"name":"006_\u884c\u706f\u6728.002",
			"translation":[
				-64.1923599243164,
				4.145533084869385,
				-3.6138176918029785
			]
		},
		{
			"mesh":7,
			"name":"007_\u5730\u9762.002",
			"translation":[
				-64.1923599243164,
				4.145533084869385,
				-3.6138176918029785
			]
		},
		{
			"mesh":8,
			"name":"008_\u5730\u9762\u5ef6\u9577.002",
			"translation":[
				-64.1923599243164,
				4.145533084869385,
				-3.6138176918029785
			]
		},
		{
			"mesh":9,
			"name":"009_\u5730\u9762\u6a2a\u5ef6\u9577.002",
			"translation":[
				-64.1923599243164,
				4.145533084869385,
				-3.6138176918029785
			]
		},
		{
			"mesh":10,
			"name":"00A_\u77f3\u7573.002",
			"translation":[
				-64.1923599243164,
				4.145533084869385,
				-3.6138176918029785
			]
		},
		{
			"mesh":11,
			"name":"00B_\u77f3\u7573\u5ef6\u9577.002",
			"translation":[
				-64.1923599243164,
				4.145533084869385,
				-3.6138176918029785
			]
		},
		{
			"mesh":12,
			"name":"00C_\u77f3\u7573\u6a2a\u5ef6\u9577.002",
			"translation":[
				-64.1923599243164,
				4.145533084869385,
				-3.6138176918029785
			]
		}
	],
	"materials":[
		{
			"name":"\u5e8a\u51e0.002",
			"pbrMetallicRoughness":{
				"baseColorTexture":{
					"index":0
				},
				"metallicFactor":0,
				"roughnessFactor":0.5
			}
		},
		{
			"name":"\u6696\u7c3e.002",
			"pbrMetallicRoughness":{
				"baseColorTexture":{
					"index":1
				},
				"metallicFactor":0,
				"roughnessFactor":0.5
			}
		},
		{
			"doubleSided":true,
			"name":"\u80cc\u9762\u58c1.002",
			"pbrMetallicRoughness":{
				"baseColorTexture":{
					"index":2
				},
				"metallicFactor":0,
				"roughnessFactor":0.5
			}
		},
		{
			"doubleSided":true,
			"name":"\u753a\u5bb6.002",
			"pbrMetallicRoughness":{
				"baseColorTexture":{
					"index":3
				},
				"metallicFactor":0,
				"roughnessFactor":0.5
			}
		},
		{
			"doubleSided":true,
			"name":"\u5965\u753a\u5bb6.002",
			"pbrMetallicRoughness":{
				"baseColorTexture":{
					"index":4
				},
				"metallicFactor":0,
				"roughnessFactor":0.5
			}
		},
		{
			"name":"\u8fbb\u884c\u706f.002",
			"pbrMetallicRoughness":{
				"baseColorTexture":{
					"index":5
				},
				"metallicFactor":0,
				"roughnessFactor":0.5
			}
		},
		{
			"name":"\u884c\u706f\u6728.002",
			"pbrMetallicRoughness":{
				"baseColorTexture":{
					"index":6
				},
				"metallicFactor":0,
				"roughnessFactor":0.5
			}
		},
		{
			"name":"\u5730\u9762.002",
			"pbrMetallicRoughness":{
				"baseColorTexture":{
					"index":7
				},
				"metallicFactor":0,
				"roughnessFactor":0.5
			}
		},
		{
			"name":"\u5730\u9762\u5ef6\u9577.002",
			"pbrMetallicRoughness":{
				"baseColorTexture":{
					"index":8
				},
				"metallicFactor":0,
				"roughnessFactor":0.5
			}
		},
		{
			"name":"\u5730\u9762\u6a2a\u5ef6\u9577.002",
			"pbrMetallicRoughness":{
				"baseColorTexture":{
					"index":9
				},
				"metallicFactor":0,
				"roughnessFactor":0.5
			}
		},
		{
			"name":"\u77f3\u7573.002",
			"pbrMetallicRoughness":{
				"baseColorTexture":{
					"index":10
				},
				"metallicFactor":0,
				"roughnessFactor":0.5
			}
		},
		{
			"name":"\u77f3\u7573\u5ef6\u9577.002",
			"pbrMetallicRoughness":{
				"baseColorTexture":{
					"index":11
				},
				"metallicFactor":0,
				"roughnessFactor":0.5
			}
		},
		{
			"name":"\u77f3\u7573\u6a2a\u5ef6\u9577.002",
			"pbrMetallicRoughness":{
				"baseColorTexture":{
					"index":12
				},
				"metallicFactor":0,
				"roughnessFactor":0.5
			}
		}
	],
	"meshes":[
		{
			"name":"\u5927\u901a\u308a\uff08\u30bf\u30a4\u30d7A\uff09.001",
			"primitives":[
				{
					"attributes":{
						"POSITION":0,
						"NORMAL":1,
						"TEXCOORD_0":2
					},
					"indices":3,
					"material":0
				}
			]
		},
		{
			"name":"\u5927\u901a\u308a\uff08\u30bf\u30a4\u30d7A\uff09.002",
			"primitives":[
				{
					"attributes":{
						"POSITION":4,
						"NORMAL":5,
						"TEXCOORD_0":6
					},
					"indices":7,
					"material":1
				}
			]
		},
		{
			"name":"\u5927\u901a\u308a\uff08\u30bf\u30a4\u30d7A\uff09.003",
			"primitives":[
				{
					"attributes":{
						"POSITION":8,
						"NORMAL":9,
						"TEXCOORD_0":10
					},
					"indices":11,
					"material":2
				}
			]
		},
		{
			"name":"\u5927\u901a\u308a\uff08\u30bf\u30a4\u30d7A\uff09.004",
			"primitives":[
				{
					"attributes":{
						"POSITION":12,
						"NORMAL":13,
						"TEXCOORD_0":14
					},
					"indices":15,
					"material":3
				}
			]
		},
		{
			"name":"\u5927\u901a\u308a\uff08\u30bf\u30a4\u30d7A\uff09.005",
			"primitives":[
				{
					"attributes":{
						"POSITION":16,
						"NORMAL":17,
						"TEXCOORD_0":18
					},
					"indices":19,
					"material":4
				}
			]
		},
		{
			"name":"\u5927\u901a\u308a\uff08\u30bf\u30a4\u30d7A\uff09.006",
			"primitives":[
				{
					"attributes":{
						"POSITION":20,
						"NORMAL":21,
						"TEXCOORD_0":22
					},
					"indices":23,
					"material":5
				}
			]
		},
		{
			"name":"\u5927\u901a\u308a\uff08\u30bf\u30a4\u30d7A\uff09.007",
			"primitives":[
				{
					"attributes":{
						"POSITION":24,
						"NORMAL":25,
						"TEXCOORD_0":26
					},
					"indices":27,
					"material":6
				}
			]
		},
		{
			"name":"\u5927\u901a\u308a\uff08\u30bf\u30a4\u30d7A\uff09.008",
			"primitives":[
				{
					"attributes":{
						"POSITION":28,
						"NORMAL":29,
						"TEXCOORD_0":30
					},
					"indices":31,
					"material":7
				}
			]
		},
		{
			"name":"\u5927\u901a\u308a\uff08\u30bf\u30a4\u30d7A\uff09.009",
			"primitives":[
				{
					"attributes":{
						"POSITION":32,
						"NORMAL":33,
						"TEXCOORD_0":34
					},
					"indices":31,
					"material":8
				}
			]
		},
		{
			"name":"\u5927\u901a\u308a\uff08\u30bf\u30a4\u30d7A\uff09.010",
			"primitives":[
				{
					"attributes":{
						"POSITION":35,
						"NORMAL":36,
						"TEXCOORD_0":37
					},
					"indices":38,
					"material":9
				}
			]
		},
		{
			"name":"\u5927\u901a\u308a\uff08\u30bf\u30a4\u30d7A\uff09.011",
			"primitives":[
				{
					"attributes":{
						"POSITION":39,
						"NORMAL":40,
						"TEXCOORD_0":41
					},
					"indices":42,
					"material":10
				}
			]
		},
		{
			"name":"\u5927\u901a\u308a\uff08\u30bf\u30a4\u30d7A\uff09.012",
			"primitives":[
				{
					"attributes":{
						"POSITION":43,
						"NORMAL":44,
						"TEXCOORD_0":45
					},
					"indices":42,
					"material":11
				}
			]
		},
		{
			"name":"\u5927\u901a\u308a\uff08\u30bf\u30a4\u30d7A\uff09.013",
			"primitives":[
				{
					"attributes":{
						"POSITION":46,
						"NORMAL":47,
						"TEXCOORD_0":48
					},
					"indices":49,
					"material":12
				}
			]
		}
	],
	"textures":[
		{
			"sampler":0,
			"source":0
		},
		{
			"sampler":0,
			"source":1
		},
		{
			"sampler":0,
			"source":0
		},
		{
			"sampler":0,
			"source":0
		},
		{
			"sampler":0,
			"source":0
		},
		{
			"sampler":0,
			"source":1
		},
		{
			"sampler":0,
			"source":0
		},
		{
			"sampler":0,
			"source":2
		},
		{
			"sampler":0,
			"source":2
		},
		{
			"sampler":0,
			"source":2
		},
		{
			"sampler":0,
			"source":2
		},
		{
			"sampler":0,
			"source":2
		},
		{
			"sampler":0,
			"source":2
		}
	],
	"images":[
		{
			"mimeType":"image/png",
			"name":"matiya",
			"uri":"textures/matiya.png"
		},
		{
			"mimeType":"image/png",
			"name":"noren",
			"uri":"textures/noren.png"
		},
		{
			"mimeType":"image/png",
			"name":"map",
			"uri":"textures/map.png"
		}
	],
	"accessors":[
		{
			"bufferView":0,
			"componentType":5126,
			"count":1080,
			"max":[
				9.023336410522461,
				0.45044687390327454,
				1.0264866352081299
			],
			"min":[
				-24.61738395690918,
				0.016183439642190933,
				-40.70256805419922
			],
			"type":"VEC3"
		},
		{
			"bufferView":1,
			"componentType":5126,
			"count":1080,
			"type":"VEC3"
		},
		{
			"bufferView":2,
			"componentType":5126,
			"count":1080,
			"type":"VEC2"
		},
		{
			"bufferView":3,
			"componentType":5123,
			"count":1620,
			"type":"SCALAR"
		},
		{
			"bufferView":4,
			"componentType":5126,
			"count":3615,
			"max":[
				11.980138778686523,
				2.2300636768341064,
				3.9832887649536133
			],
			"min":[
				-28.43650245666504,
				-0.0033165598288178444,
				-40.85095977783203
			],
			"type":"VEC3"
		},
		{
			"bufferView":5,
			"componentType":5126,
			"count":3615,
			"type":"VEC3"
		},
		{
			"bufferView":6,
			"componentType":5126,
			"count":3615,
			"type":"VEC2"
		},
		{
			"bufferView":7,
			"componentType":5123,
			"count":7152,
			"type":"SCALAR"
		},
		{
			"bufferView":8,
			"componentType":5126,
			"count":9671,
			"max":[
				25.2330322265625,
				5.1644487380981445,
				17.236183166503906
			],
			"min":[
				-28.88422966003418,
				0.01498847920447588,
				-45.00545120239258
			],
			"type":"VEC3"
		},
		{
			"bufferView":9,
			"componentType":5126,
			"count":9671,
			"type":"VEC3"
		},
		{
			"bufferView":10,
			"componentType":5126,
			"count":9671,
			"type":"VEC2"
		},
		{
			"bufferView":11,
			"componentType":5123,
			"count":30312,
			"type":"SCALAR"
		},
		{
			"bufferView":12,
			"componentType":5126,
			"count":164992,
			"max":[
				12.501407623291016,
				5.452087879180908,
				17.733314514160156
			],
			"min":[
				-12.501408576965332,
				-0.014011919498443604,
				-36.88107681274414
			],
			"type":"VEC3"
		},
		{
			"bufferView":13,
			"componentType":5126,
			"count":164992,
			"type":"VEC3"
		},
		{
			"bufferView":14,
			"componentType":5126,
			"count":164992,
			"type":"VEC2"
		},
		{
			"bufferView":15,
			"componentType":5125,
			"count":426132,
			"type":"SCALAR"
		},
		{
			"bufferView":16,
			"componentType":5126,
			"count":83210,
			"max":[
				25.73016357421875,
				5.452087879180908,
				-39.00053787231445
			],
			"min":[
				-28.88422966003418,
				-0.014011919498443604,
				-45.57758331298828
			],
			"type":"VEC3"
		},
		{
			"bufferView":17,
			"componentType":5126,
			"count":83210,
			"type":"VEC3"
		},
		{
			"bufferView":18,
			"componentType":5126,
			"count":83210,
			"type":"VEC2"
		},
		{
			"bufferView":19,
			"componentType":5125,
			"count":212922,
			"type":"SCALAR"
		},
		{
			"bufferView":20,
			"componentType":5126,
			"count":240,
			"max":[
				6.816648483276367,
				1.8108916282653809,
				18.487573623657227
			],
			"min":[
				-6.816649436950684,
				0.7194657921791077,
				-38.42851638793945
			],
			"type":"VEC3"
		},
		{
			"bufferView":21,
			"componentType":5126,
			"count":240,
			"type":"VEC3"
		},
		{
			"bufferView":22,
			"componentType":5126,
			"count":240,
			"type":"VEC2"
		},
		{
			"bufferView":23,
			"componentType":5123,
			"count":360,
			"type":"SCALAR"
		},
		{
			"bufferView":24,
			"componentType":5126,
			"count":12638,
			"max":[
				7.116324424743652,
				2.2731072902679443,
				18.85840606689453
			],
			"min":[
				-7.116325378417969,
				-0.04109352082014084,
				-38.79935073852539
			],
			"type":"VEC3"
		},
		{
			"bufferView":25,
			"componentType":5126,
			"count":12638,
			"type":"VEC3"
		},
		{
			"bufferView":26,
			"componentType":5126,
			"count":12638,
			"type":"VEC2"
		},
		{
			"bufferView":27,
			"componentType":5123,
			"count":23352,
			"type":"SCALAR"
		},
		{
			"bufferView":28,
			"componentType":5126,
			"count":525,
			"max":[
				11.177921295166016,
				0.06765719503164291,
				16.01901626586914
			],
			"min":[
				-11.177922248840332,
				-0.18231721222400665,
				-37.98069763183594
			],
			"type":"VEC3"
		},
		{
			"bufferView":29,
			"componentType":5126,
			"count":525,
			"type":"VEC3"
		},
		{
			"bufferView":30,
			"componentType":5126,
			"count":525,
			"type":"VEC2"
		},
		{
			"bufferView":31,
			"componentType":5123,
			"count":2856,
			"type":"SCALAR"
		},
		{
			"bufferView":32,
			"componentType":5126,
			"count":525,
			"max":[
				11.17791748046875,
				0.06765719503164291,
				-37.98069763183594
			],
			"min":[
				-11.177924156188965,
				-0.18231721222400665,
				-91.99855041503906
			],
			"type":"VEC3"
		},
		{
			"bufferView":33,
			"componentType":5126,
			"count":525,
			"type":"VEC3"
		},
		{
			"bufferView":34,
			"componentType":5126,
			"count":525,
			"type":"VEC2"
		},
		{
			"bufferView":35,
			"componentType":5126,
			"count":364,
			"max":[
				34.58149719238281,
				0.15157897770404816,
				26.980491638183594
			],
			"min":[
				-32.581642150878906,
				-0.18231721222400665,
				16.017866134643555
			],
			"type":"VEC3"
		},
		{
			"bufferView":36,
			"componentType":5126,
			"count":364,
			"type":"VEC3"
		},
		{
			"bufferView":37,
			"componentType":5126,
			"count":364,
			"type":"VEC2"
		},
		{
			"bufferView":38,
			"componentType":5123,
			"count":1836,
			"type":"SCALAR"
		},
		{
			"bufferView":39,
			"componentType":5126,
			"count":6076,
			"max":[
				11.117431640625,
				-0.3331723213195801,
				12.660558700561523
			],
			"min":[
				-11.117432594299316,
				-0.4564497768878937,
				-38.315616607666016
			],
			"type":"VEC3"
		},
		{
			"bufferView":40,
			"componentType":5126,
			"count":6076,
			"type":"VEC3"
		},
		{
			"bufferView":41,
			"componentType":5126,
			"count":6076,
			"type":"VEC2"
		},
		{
			"bufferView":42,
			"componentType":5123,
			"count":11520,
			"type":"SCALAR"
		},
		{
			"bufferView":43,
			"componentType":5126,
			"count":6076,
			"max":[
				11.11742877960205,
				-0.23957231640815735,
				-38.315616607666016
			],
			"min":[
				-11.117436408996582,
				-0.4564497768878937,
				-89.40067291259766
			],
			"type":"VEC3"
		},
		{
			"bufferView":44,
			"componentType":5126,
			"count":6076,
			"type":"VEC3"
		},
		{
			"bufferView":45,
			"componentType":5126,
			"count":6076,
			"type":"VEC2"
		},
		{
			"bufferView":46,
			"componentType":5126,
			"count":5868,
			"max":[
				25.54252815246582,
				-0.24725376069545746,
				28.458036422729492
			],
			"min":[
				-25.542526245117188,
				-0.37053123116493225,
				10.908220291137695
			],
			"type":"VEC3"
		},
		{
			"bufferView":47,
			"componentType":5126,
			"count":5868,
			"type":"VEC3"
		},
		{
			"bufferView":48,
			"componentType":5126,
			"count":5868,
			"type":"VEC2"
		},
		{
			"bufferView":49,
			"componentType":5123,
			"count":11208,
			"type":"SCALAR"
		}
	],
	"bufferViews":[
		{
			"buffer":0,
			"byteLength":12960,
			"byteOffset":0,
			"target":34962
		},
		{
			"buffer":0,
			"byteLength":12960,
			"byteOffset":12960,
			"target":34962
		},
		{
			"buffer":0,
			"byteLength":8640,
			"byteOffset":25920,
			"target":34962
		},
		{
			"buffer":0,
			"byteLength":3240,
			"byteOffset":34560,
			"target":34963
		},
		{
			"buffer":0,
			"byteLength":43380,
			"byteOffset":37800,
			"target":34962
		},
		{
			"buffer":0,
			"byteLength":43380,
			"byteOffset":81180,
			"target":34962
		},
		{
			"buffer":0,
			"byteLength":28920,
			"byteOffset":124560,
			"target":34962
		},
		{
			"buffer":0,
			"byteLength":14304,
			"byteOffset":153480,
			"target":34963
		},
		{
			"buffer":0,
			"byteLength":116052,
			"byteOffset":167784,
			"target":34962
		},
		{
			"buffer":0,
			"byteLength":116052,
			"byteOffset":283836,
			"target":34962
		},
		{
			"buffer":0,
			"byteLength":77368,
			"byteOffset":399888,
			"target":34962
		},
		{
			"buffer":0,
			"byteLength":60624,
			"byteOffset":477256,
			"target":34963
		},
		{
			"buffer":0,
			"byteLength":1979904,
			"byteOffset":537880,
			"target":34962
		},
		{
			"buffer":0,
			"byteLength":1979904,
			"byteOffset":2517784,
			"target":34962
		},
		{
			"buffer":0,
			"byteLength":1319936,
			"byteOffset":4497688,
			"target":34962
		},
		{
			"buffer":0,
			"byteLength":1704528,
			"byteOffset":5817624,
			"target":34963
		},
		{
			"buffer":0,
			"byteLength":998520,
			"byteOffset":7522152,
			"target":34962
		},
		{
			"buffer":0,
			"byteLength":998520,
			"byteOffset":8520672,
			"target":34962
		},
		{
			"buffer":0,
			"byteLength":665680,
			"byteOffset":9519192,
			"target":34962
		},
		{
			"buffer":0,
			"byteLength":851688,
			"byteOffset":10184872,
			"target":34963
		},
		{
			"buffer":0,
			"byteLength":2880,
			"byteOffset":11036560,
			"target":34962
		},
		{
			"buffer":0,
			"byteLength":2880,
			"byteOffset":11039440,
			"target":34962
		},
		{
			"buffer":0,
			"byteLength":1920,
			"byteOffset":11042320,
			"target":34962
		},
		{
			"buffer":0,
			"byteLength":720,
			"byteOffset":11044240,
			"target":34963
		},
		{
			"buffer":0,
			"byteLength":151656,
			"byteOffset":11044960,
			"target":34962
		},
		{
			"buffer":0,
			"byteLength":151656,
			"byteOffset":11196616,
			"target":34962
		},
		{
			"buffer":0,
			"byteLength":101104,
			"byteOffset":11348272,
			"target":34962
		},
		{
			"buffer":0,
			"byteLength":46704,
			"byteOffset":11449376,
			"target":34963
		},
		{
			"buffer":0,
			"byteLength":6300,
			"byteOffset":11496080,
			"target":34962
		},
		{
			"buffer":0,
			"byteLength":6300,
			"byteOffset":11502380,
			"target":34962
		},
		{
			"buffer":0,
			"byteLength":4200,
			"byteOffset":11508680,
			"target":34962
		},
		{
			"buffer":0,
			"byteLength":5712,
			"byteOffset":11512880,
			"target":34963
		},
		{
			"buffer":0,
			"byteLength":6300,
			"byteOffset":11518592,
			"target":34962
		},
		{
			"buffer":0,
			"byteLength":6300,
			"byteOffset":11524892,
			"target":34962
		},
		{
			"buffer":0,
			"byteLength":4200,
			"byteOffset":11531192,
			"target":34962
		},
		{
			"buffer":0,
			"byteLength":4368,
			"byteOffset":11535392,
			"target":34962
		},
		{
			"buffer":0,
			"byteLength":4368,
			"byteOffset":11539760,
			"target":34962
		},
		{
			"buffer":0,
			"byteLength":2912,
			"byteOffset":11544128,
			"target":34962
		},
		{
			"buffer":0,
			"byteLength":3672,
			"byteOffset":11547040,
			"target":34963
		},
		{
			"buffer":0,
			"byteLength":72912,
			"byteOffset":11550712,
			"target":34962
		},
		{
			"buffer":0,
			"byteLength":72912,
			"byteOffset":11623624,
			"target":34962
		},
		{
			"buffer":0,
			"byteLength":48608,
			"byteOffset":11696536,
			"target":34962
		},
		{
			"buffer":0,
			"byteLength":23040,
			"byteOffset":11745144,
			"target":34963
		},
		{
			"buffer":0,
			"byteLength":72912,
			"byteOffset":11768184,
			"target":34962
		},
		{
			"buffer":0,
			"byteLength":72912,
			"byteOffset":11841096,
			"target":34962
		},
		{
			"buffer":0,
			"byteLength":48608,
			"byteOffset":11914008,
			"target":34962
		},
		{
			"buffer":0,
			"byteLength":70416,
			"byteOffset":11962616,
			"target":34962
		},
		{
			"buffer":0,
			"byteLength":70416,
			"byteOffset":12033032,
			"target":34962
		},
		{
			"buffer":0,
			"byteLength":46944,
			"byteOffset":12103448,
			"target":34962
		},
		{
			"buffer":0,
			"byteLength":22416,
			"byteOffset":12150392,
			"target":34963
		}
	],
	"samplers":[
		{
			"magFilter":9729,
			"minFilter":9987
		}
	],
	"buffers":[
		{
			"byteLength":12172808,
			"uri":"KyomachiyaA.bin"
		}
	]
}
