{
	"asset":{
		"generator":"Khronos glTF Blender I/O v4.2.83",
		"version":"2.0"
	},
	"scene":0,
	"scenes":[
		{
			"name":"Scene",
			"nodes":[
				4
			]
		}
	],
	"nodes":[
		{
			"mesh":0,
			"name":"000_\u623f.001"
		},
		{
			"mesh":1,
			"name":"001_\u672c\u4f53.002"
		},
		{
			"mesh":2,
			"name":"002_\u771f\u73e0.002"
		},
		{
			"mesh":3,
			"name":"003_\u77f3.001"
		},
		{
			"children":[
				0,
				1,
				2,
				3
			],
			"name":"ChosenSword",
			"translation":[
				1.3151488304138184,
				0.19203652441501617,
				0.6104090213775635
			]
		}
	],
	"materials":[
		{
			"doubleSided":true,
			"name":"\u623f.004",
			"pbrMetallicRoughness":{
				"baseColorTexture":{
					"index":0
				},
				"metallicFactor":0,
				"roughnessFactor":0.5
			}
		},
		{
			"doubleSided":true,
			"name":"\u672c\u4f53.002",
			"pbrMetallicRoughness":{
				"baseColorTexture":{
					"index":1
				},
				"metallicFactor":0.5170454382896423,
				"roughnessFactor":0.5
			}
		},
		{
			"doubleSided":true,
			"name":"\u771f\u73e0.002",
			"pbrMetallicRoughness":{
				"baseColorTexture":{
					"index":2
				},
				"metallicFactor":0,
				"roughnessFactor":0.5
			}
		},
		{
			"doubleSided":true,
			"name":"\u77f3.004",
			"pbrMetallicRoughness":{
				"baseColorTexture":{
					"index":3
				},
				"metallicFactor":0,
				"roughnessFactor":0
			}
		}
	],
	"meshes":[
		{
			"name":"\u30de\u30eb\u30df\u30a2\u30c9\u30ef\u30fc\u30ba.005",
			"primitives":[
				{
					"attributes":{
						"POSITION":0,
						"NORMAL":1,
						"TEXCOORD_0":2,
						"TANGENT":3
					},
					"indices":4,
					"material":0
				}
			]
		},
		{
			"name":"\u30de\u30eb\u30df\u30a2\u30c9\u30ef\u30fc\u30ba.006",
			"primitives":[
				{
					"attributes":{
						"POSITION":5,
						"NORMAL":6,
						"TEXCOORD_0":7,
						"TANGENT":8
					},
					"indices":9,
					"material":1
				}
			]
		},
		{
			"name":"\u30de\u30eb\u30df\u30a2\u30c9\u30ef\u30fc\u30ba.007",
			"primitives":[
				{
					"attributes":{
						"POSITION":10,
						"NORMAL":11,
						"TEXCOORD_0":12,
						"TANGENT":13
					},
					"indices":14,
					"material":2
				}
			]
		},
		{
			"name":"\u30de\u30eb\u30df\u30a2\u30c9\u30ef\u30fc\u30ba.008",
			"primitives":[
				{
					"attributes":{
						"POSITION":15,
						"NORMAL":16,
						"TEXCOORD_0":17,
						"TANGENT":18
					},
					"indices":19,
					"material":3
				}
			]
		}
	],
	"textures":[
		{
			"sampler":0,
			"source":0
		},
		{
			"sampler":0,
			"source":0
		},
		{
			"sampler":0,
			"source":0
		},
		{
			"sampler":0,
			"source":0
		}
	],
	"images":[
		{
			"mimeType":"image/png",
			"name":"sword",
			"uri":"textures/sword.png"
		}
	],
	"accessors":[
		{
			"bufferView":0,
			"componentType":5126,
			"count":1966,
			"max":[
				0.3243418335914612,
				1.8408266305923462,
				0.022322548553347588
			],
			"min":[
				-0.3243418335914612,
				1.4920709133148193,
				-0.046832527965307236
			],
			"type":"VEC3"
		},
		{
			"bufferView":1,
			"componentType":5126,
			"count":1966,
			"type":"VEC3"
		},
		{
			"bufferView":2,
			"componentType":5126,
			"count":1966,
			"type":"VEC2"
		},
		{
			"bufferView":3,
			"componentType":5126,
			"count":1966,
			"type":"VEC4"
		},
		{
			"bufferView":4,
			"componentType":5123,
			"count":9744,
			"type":"SCALAR"
		},
		{
			"bufferView":5,
			"componentType":5126,
			"count":12242,
			"max":[
				0.22880993783473969,
				1.9947177171707153,
				0.03598950430750847
			],
			"min":[
				-0.22880993783473969,
				-0.007912657223641872,
				-0.035989269614219666
			],
			"type":"VEC3"
		},
		{
			"bufferView":6,
			"componentType":5126,
			"count":12242,
			"type":"VEC3"
		},
		{
			"bufferView":7,
			"componentType":5126,
			"count":12242,
			"type":"VEC2"
		},
		{
			"bufferView":8,
			"componentType":5126,
			"count":12242,
			"type":"VEC4"
		},
		{
			"bufferView":9,
			"componentType":5123,
			"count":54336,
			"type":"SCALAR"
		},
		{
			"bufferView":10,
			"componentType":5126,
			"count":134,
			"max":[
				0.015147475525736809,
				0.09734974056482315,
				0.019789807498455048
			],
			"min":[
				-0.015147566795349121,
				0.06710956245660782,
				-0.01978977955877781
			],
			"type":"VEC3"
		},
		{
			"bufferView":11,
			"componentType":5126,
			"count":134,
			"type":"VEC3"
		},
		{
			"bufferView":12,
			"componentType":5126,
			"count":134,
			"type":"VEC2"
		},
		{
			"bufferView":13,
			"componentType":5126,
			"count":134,
			"type":"VEC4"
		},
		{
			"bufferView":14,
			"componentType":5123,
			"count":720,
			"type":"SCALAR"
		},
		{
			"bufferView":15,
			"componentType":5126,
			"count":334,
			"max":[
				0.029132654890418053,
				1.8705999851226807,
				0.03725910186767578
			],
			"min":[
				-0.029132654890418053,
				0.7872799038887024,
				-0.037258755415678024
			],
			"type":"VEC3"
		},
		{
			"bufferView":16,
			"componentType":5126,
			"count":334,
			"type":"VEC3"
		},
		{
			"bufferView":17,
			"componentType":5126,
			"count":334,
			"type":"VEC2"
		},
		{
			"bufferView":18,
			"componentType":5126,
			"count":334,
			"type":"VEC4"
		},
		{
			"bufferView":19,
			"componentType":5123,
			"count":528,
			"type":"SCALAR"
		}
	],
	"bufferViews":[
		{
			"buffer":0,
			"byteLength":23592,
			"byteOffset":0,
			"target":34962
		},
		{
			"buffer":0,
			"byteLength":23592,
			"byteOffset":23592,
			"target":34962
		},
		{
			"buffer":0,
			"byteLength":15728,
			"byteOffset":47184,
			"target":34962
		},
		{
			"buffer":0,
			"byteLength":31456,
			"byteOffset":62912,
			"target":34962
		},
		{
			"buffer":0,
			"byteLength":19488,
			"byteOffset":94368,
			"target":34963
		},
		{
			"buffer":0,
			"byteLength":146904,
			"byteOffset":113856,
			"target":34962
		},
		{
			"buffer":0,
			"byteLength":146904,
			"byteOffset":260760,
			"target":34962
		},
		{
			"buffer":0,
			"byteLength":97936,
			"byteOffset":407664,
			"target":34962
		},
		{
			"buffer":0,
			"byteLength":195872,
			"byteOffset":505600,
			"target":34962
		},
		{
			"buffer":0,
			"byteLength":108672,
			"byteOffset":701472,
			"target":34963
		},
		{
			"buffer":0,
			"byteLength":1608,
			"byteOffset":810144,
			"target":34962
		},
		{
			"buffer":0,
			"byteLength":1608,
			"byteOffset":811752,
			"target":34962
		},
		{
			"buffer":0,
			"byteLength":1072,
			"byteOffset":813360,
			"target":34962
		},
		{
			"buffer":0,
			"byteLength":2144,
			"byteOffset":814432,
			"target":34962
		},
		{
			"buffer":0,
			"byteLength":1440,
			"byteOffset":816576,
			"target":34963
		},
		{
			"buffer":0,
			"byteLength":4008,
			"byteOffset":818016,
			"target":34962
		},
		{
			"buffer":0,
			"byteLength":4008,
			"byteOffset":822024,
			"target":34962
		},
		{
			"buffer":0,
			"byteLength":2672,
			"byteOffset":826032,
			"target":34962
		},
		{
			"buffer":0,
			"byteLength":5344,
			"byteOffset":828704,
			"target":34962
		},
		{
			"buffer":0,
			"byteLength":1056,
			"byteOffset":834048,
			"target":34963
		}
	],
	"samplers":[
		{
			"magFilter":9729,
			"minFilter":9987
		}
	],
	"buffers":[
		{
			"byteLength":835104,
			"uri":"ChosenSword.bin"
		}
	]
}
